<?xml version="1.0" standalone="no"?>
<!DOCTYPE svg PUBLIC "-//W3C//DTD SVG 20010904//EN"
 "http://www.w3.org/TR/2001/REC-SVG-20010904/DTD/svg10.dtd">
<svg version="1.0" xmlns="http://www.w3.org/2000/svg"
 width="720.000000pt" height="720.000000pt" viewBox="0 0 720.000000 720.000000"
 preserveAspectRatio="xMidYMid meet">
<metadata>
Created by potrace 1.11, written by Peter Selinger 2001-2013
</metadata>
<g transform="translate(0.000000,720.000000) scale(0.100000,-0.100000)"
fill="#000000" stroke="none">
<path d="M1487 6633 c-3 -10 -27 -229 -53 -488 -26 -258 -50 -473 -53 -477 -4
-4 -130 -15 -281 -25 l-275 -18 0 -320 0 -320 258 -3 257 -2 0 -923 c0 -559 4
-965 10 -1032 50 -529 276 -869 665 -1002 123 -42 291 -72 405 -73 l65 -1 55
-86 c69 -109 236 -279 345 -351 228 -151 444 -216 715 -216 166 0 260 14 400
60 328 109 615 367 756 679 l38 85 151 0 c581 0 1018 193 1252 552 59 90 102
189 135 308 20 74 23 108 23 265 0 157 -3 191 -23 265 -60 221 -202 411 -409
546 -180 116 -310 176 -706 325 -373 140 -515 219 -585 325 -52 77 -67 145
-53 228 34 201 189 313 458 332 233 17 503 -69 757 -240 80 -53 102 -64 112
-54 6 7 92 119 189 248 98 129 182 241 188 248 12 15 10 17 -138 117 -453 305
-998 406 -1510 281 -353 -87 -623 -284 -760 -556 -81 -161 -120 -338 -112
-510 19 -382 218 -646 661 -874 59 -30 229 -103 379 -162 423 -167 511 -212
622 -315 105 -98 142 -206 115 -334 -16 -79 -42 -128 -101 -190 -56 -59 -147
-108 -242 -130 -85 -20 -221 -29 -289 -21 l-56 7 -22 87 c-57 230 -171 424
-352 598 -241 232 -543 354 -878 354 -213 0 -391 -44 -583 -142 -129 -66 -231
-143 -337 -254 -163 -169 -254 -339 -323 -599 l-13 -50 -32 44 c-17 24 -41 69
-53 100 -46 123 -47 153 -52 1133 l-5 928 462 2 461 3 0 335 0 335 -462 3
-463 2 0 495 0 495 -354 0 c-329 0 -355 -1 -359 -17z"/>
</g>
</svg>
